<?xml version="1.0" encoding="iso-8859-1"?>
<!-- Generator: Adobe Illustrator 19.0.0, SVG Export Plug-In . SVG Version: 6.00 Build 0)  -->
<svg version="1.1" id="Layer_1" xmlns="http://www.w3.org/2000/svg" xmlns:xlink="http://www.w3.org/1999/xlink" x="0px" y="0px"
	 viewBox="0 0 460 460" style="enable-background:new 0 0 460 460;" xml:space="preserve">
<g id="XMLID_1329_">
	<g id="Base">
		<path id="XMLID_1280_" style="fill:#AAAFAD;" d="M460,268.025v133.016c0,11.046-8.954,20-20,20h-68.148h-5.326l-3.118,3.112
			c-7.811,7.795-20.476,7.795-28.287,0l-3.118-3.112h-5.335H20c-11.046,0-20-8.954-20-20V288.025c0-11.045,8.953-19.999,19.998-20
			H460z"/>
		<path id="XMLID_1555_" style="fill:#979B99;" d="M460,268.025v133.016c0,11.046-8.954,20-20,20h-68.148h-5.326l-3.118,3.112
			c-7.811,7.795-20.476,7.795-28.287,0l-3.118-3.112H306.9l-68.381-68.381v-42.318l0.148,0.152v-42.47L460,268.025L460,268.025z"/>
		<path id="XMLID_1067_" style="fill:#C3C9C7;" d="M443.543,344.184l-80.136,79.97c-7.811,7.795-20.476,7.795-28.287,0
			L86.326,175.874c-7.811-7.795-7.811-20.434,0-28.229l80.136-79.97c7.811-7.795,20.476-7.795,28.287,0l248.794,248.279
			C451.354,323.75,451.354,336.388,443.543,344.184z"/>
		<path id="XMLID_484_" style="fill:#AAAFAD;" d="M443.543,344.184l-80.136,79.97c-7.811,7.795-20.476,7.795-28.287,0L310,399.086
			l-20-19.959V221.87h59.264l94.279,94.084C451.354,323.75,451.354,336.388,443.543,344.184z"/>
		<path id="XMLID_1044_" style="fill:#D2D6D5;" d="M306.667,401.042V270c0-11.046,8.954-20,20-20H440c11.046,0,20,8.954,20,20
			v131.042c0,11.046-8.954,20-20,20H326.667C315.621,421.042,306.667,412.087,306.667,401.042z"/>
	</g>
	<g id="Clip">
		<path id="XMLID_1047_" style="fill:#AAAFAD;" d="M366.296,378.537L366.296,378.537c0,9.39-7.612,17.002-17.002,17.002h-0.07
			c-9.39,0-17.002-7.612-17.002-17.002l0,0c0-9.39,7.612-17.002,17.002-17.002h0.07
			C358.684,361.535,366.296,369.147,366.296,378.537z"/>
		<path id="XMLID_1048_" style="fill:#66646D;" d="M357.778,378.537c0,4.695-3.814,8.501-8.519,8.501s-8.519-3.806-8.519-8.501
			s3.814-8.501,8.519-8.501S357.778,373.842,357.778,378.537z"/>
	</g>
	<g id="Text_6_">
		<path id="XMLID_1045_" style="fill:#AAAFAD;" d="M332.222,297.779L332.222,297.779c0-2.347,1.903-4.25,4.25-4.25h93.721
			c2.347,0,4.25,1.903,4.25,4.25l0,0c0,2.347-1.903,4.25-4.25,4.25h-93.721C334.125,302.029,332.222,300.126,332.222,297.779z"/>
		<path id="XMLID_1046_" style="fill:#AAAFAD;" d="M332.222,314.78L332.222,314.78c0-2.347,1.903-4.25,4.25-4.25h93.721
			c2.347,0,4.25,1.903,4.25,4.25l0,0c0,2.347-1.903,4.25-4.25,4.25h-93.721C334.125,319.031,332.222,317.128,332.222,314.78z"/>
	</g>
	<g id="Blue_palette">
		<path id="XMLID_1090_" style="fill:#475E70;" d="M0,401.042V288.026c0-11.046,8.954-20,20-20h218.519v153.016H20
			C8.954,421.042,0,412.087,0,401.042z"/>
		<path id="XMLID_783_" style="fill:#344A59;" d="M238.519,268.025v84.635l-60-59.63v-25.006h60V268.025z"/>
		<path id="XMLID_1075_" style="fill:#65849B;" d="M0,401.042V288.026c0-11.046,8.954-20,20-20h158.889v153.016H20
			C8.954,421.042,0,412.087,0,401.042z"/>
		<path id="XMLID_1089_" style="fill:#344A59;" d="M153.333,314.772v-16.984c0-2.352,1.907-4.259,4.259-4.259l0,0
			c2.352,0,4.259,1.907,4.259,4.259v16.984c0,2.352-1.907,4.259-4.259,4.259l0,0C155.24,319.031,153.333,317.124,153.333,314.772z"
			/>
		<path id="XMLID_1072_" style="fill:#7FA3BA;" d="M0,401.042V288.026c0-11.046,8.954-20,20-20h99.259v153.016H20
			C8.954,421.042,0,412.087,0,401.042z"/>
		<path id="XMLID_1073_" style="fill:#65849B;" d="M93.704,314.772v-16.984c0-2.352,1.907-4.259,4.259-4.259l0,0
			c2.352,0,4.259,1.907,4.259,4.259v16.984c0,2.352-1.907,4.259-4.259,4.259l0,0C95.611,319.031,93.704,317.124,93.704,314.772z"/>
		<path id="XMLID_1070_" style="fill:#95BDBF;" d="M20,421.042c-11.046,0-20-8.954-20-20V288.026c0-11.046,8.954-20,20-20h39.63
			v153.016H20z"/>
		<path id="XMLID_1071_" style="fill:#7FA3BA;" d="M34.074,314.772v-16.984c0-2.352,1.907-4.259,4.259-4.259l0,0
			c2.352,0,4.259,1.907,4.259,4.259v16.984c0,2.352-1.907,4.259-4.259,4.259l0,0C35.981,319.031,34.074,317.124,34.074,314.772z"/>
	</g>
	<g id="Green_palette">
		<path id="XMLID_1444_" style="fill:#707F39;" d="M349.264,221.87L240.841,330.069L86.326,175.874
			c-7.811-7.795-7.811-20.434,0-28.229l80.136-79.97c7.811-7.795,20.476-7.795,28.287,0L349.264,221.87z"/>
		<path id="XMLID_1056_" style="fill:#84994B;" d="M307.099,179.793L198.676,287.992l-42.165-42.077l-70.185-70.04
			c-7.811-7.795-7.811-20.434,0-28.229l80.136-79.97c7.811-7.795,20.476-7.795,28.287,0l70.185,70.04L307.099,179.793z"/>
		<path id="XMLID_2127_" style="fill:#AAC06A;" d="M238.519,164.077L172.459,230l-15.947,15.914l-70.185-70.04
			c-7.811-7.795-7.811-20.434,0-28.229l80.136-79.97c7.811-7.795,20.476-7.795,28.287,0l70.185,70.04L238.519,164.077z"/>
		<path id="XMLID_1049_" style="fill:#C8DD7F;" d="M86.326,175.874c-7.811-7.795-7.811-20.434,0-28.229l80.136-79.97
			c7.811-7.795,20.476-7.795,28.287,0l28.021,27.963L114.347,203.837L86.326,175.874z"/>
		<path id="XMLID_1057_" style="fill:#707F39;" d="M255.901,194.819l12.047-12.022c1.664-1.66,4.357-1.66,6.021,0l0,0
			c1.663,1.66,1.663,4.354,0,6.014l-12.047,12.022c-1.664,1.66-4.357,1.66-6.021,0l0,0
			C254.238,199.173,254.238,196.479,255.901,194.819z"/>
		<path id="XMLID_1052_" style="fill:#84994B;" d="M213.736,152.742l12.047-12.022c1.664-1.66,4.357-1.66,6.021,0l0,0
			c1.663,1.66,1.663,4.354,0,6.014l-12.047,12.022c-1.664,1.66-4.357,1.66-6.021,0l0,0
			C212.073,157.096,212.073,154.401,213.736,152.742z"/>
		<path id="XMLID_1050_" style="fill:#AAC06A;" d="M171.572,110.665l12.047-12.022c1.664-1.66,4.357-1.66,6.021,0l0,0
			c1.663,1.66,1.663,4.354,0,6.014l-12.047,12.022c-1.664,1.66-4.357,1.66-6.021,0l0,0
			C169.908,115.019,169.908,112.324,171.572,110.665z"/>
		<path id="XMLID_1066_" style="fill:#515B28;" d="M307.099,179.793l42.165,42.077L340,231.115l-50,49.897v-84.155L307.099,179.793z
			"/>
	</g>
	<g id="Red_palette">
		<path id="XMLID_1036_" style="fill:#AA3131;" d="M326.667,60H440c11.046,0,20,8.954,20,20v188.025H306.667V80
			C306.667,68.954,315.621,60,326.667,60z"/>
		<path id="XMLID_1035_" style="fill:#C93F3F;" d="M326.667,50H440c11.046,0,20,8.954,20,20v138.519H306.667V70
			C306.667,58.954,315.621,50,326.667,50z"/>
		<path id="XMLID_974_" style="fill:#E25C56;" d="M326.667,50H440c11.046,0,20,8.954,20,20v79.013H306.667V70
			C306.667,58.954,315.621,50,326.667,50z"/>
		<path id="XMLID_103_" style="fill:#FF9292;" d="M306.667,50c0-11.046,8.954-20,20-20H440c11.046,0,20,8.954,20,20v39.506H306.667
			V50z"/>
		<path id="XMLID_1041_" style="fill:#6C3131;" d="M413.139,242.523h17.055c2.347,0,4.25,1.903,4.25,4.25l0,0
			c0,2.347-1.903,4.25-4.25,4.25h-17.055c-2.347,0-4.25-1.903-4.25-4.25l0,0C408.889,244.426,410.792,242.523,413.139,242.523z"/>
		<path id="XMLID_1040_" style="fill:#AA3131;" d="M413.139,183.016h17.055c2.347,0,4.25,1.903,4.25,4.25l0,0
			c0,2.347-1.903,4.25-4.25,4.25h-17.055c-2.347,0-4.25-1.903-4.25-4.25l0,0C408.889,184.919,410.792,183.016,413.139,183.016z"/>
		<path id="XMLID_1039_" style="fill:#C93F3F;" d="M413.139,123.51h17.055c2.347,0,4.25,1.903,4.25,4.25l0,0
			c0,2.347-1.903,4.25-4.25,4.25h-17.055c-2.347,0-4.25-1.903-4.25-4.25l0,0C408.889,125.413,410.792,123.51,413.139,123.51z"/>
		<path id="XMLID_1038_" style="fill:#E25C56;" d="M413.139,64.004h17.055c2.347,0,4.25,1.903,4.25,4.25l0,0
			c0,2.347-1.903,4.25-4.25,4.25h-17.055c-2.347,0-4.25-1.903-4.25-4.25l0,0C408.889,65.907,410.792,64.004,413.139,64.004z"/>
	</g>
</g>
<g>
</g>
<g>
</g>
<g>
</g>
<g>
</g>
<g>
</g>
<g>
</g>
<g>
</g>
<g>
</g>
<g>
</g>
<g>
</g>
<g>
</g>
<g>
</g>
<g>
</g>
<g>
</g>
<g>
</g>
</svg>
